<svg width="365" height="82" viewBox="0 0 365 82" fill="none" xmlns="http://www.w3.org/2000/svg">
<g clip-path="url(#clip0_1_2295)">
<path d="M128.081 61.6356L120.483 66.0244H92.3813V20.1716H120.483L128.081 24.5604V61.6356ZM101.552 28.0321V58.1639H118.91V28.0321H101.552ZM168.884 61.9632L161.285 66.3519H147.333L139.734 61.9632V37.3337L147.333 32.9449H161.285L168.884 37.3337V61.9632ZM148.708 40.6089V58.688H159.909V40.6089H148.708ZM188.848 40.9364V58.3604H205.093V66.0244H187.473L179.874 61.6356V37.6612L187.473 33.2724H205.093V40.9364H188.848ZM212.148 40.9364V33.2724H218.175V27.7701L227.149 22.5953V33.2724H234.354V40.9364H227.149V58.3604H234.354V66.0244H225.773L218.175 61.6356V40.9364H212.148ZM253.008 66.0244H244.034V18.2065H253.008V35.6306L257.658 32.9449H266.239L273.838 37.3337V66.0244H264.864V40.6089H253.008V66.0244ZM305.118 40.9364H293.851V66.0244H284.877V33.2724H292.279L293.851 35.9581L298.502 33.2724H305.118V40.9364ZM312.863 61.9632V33.2724H321.837V58.688H333.038V33.2724H342.012V66.3519H334.61L333.038 63.6663L328.387 66.3519H320.461L312.863 61.9632Z" fill="#525252"/>
<rect x="17.2158" y="10.2939" width="53.222" height="61.41" rx="4.094" fill="#262626"/>
<path d="M50.9917 30.7637L58.1562 39.7193L50.9917 48.6749" stroke="#FFC117" stroke-width="4.9128"/>
<path d="M36.6625 30.7637L29.498 39.7193L36.6625 48.6749" stroke="#FFC117" stroke-width="4.9128"/>
</g>
<defs>
<clipPath id="clip0_1_2295">
<rect width="363.911" height="81.88" fill="white" transform="translate(0.839844 0.0585938)"/>
</clipPath>
</defs>
</svg>
