<svg width="32" height="32" viewBox="0 0 32 32" fill="none" xmlns="http://www.w3.org/2000/svg">
<circle cx="16" cy="16" r="16" fill="#FAFAFA"/>
<path d="M26.0005 14.5C26.0005 20.299 21.7472 25 16.5005 25C11.2537 25 7.00045 20.299 7.00045 14.5C7.00045 11.7628 5.44809 8.86904 7.00049 7C8.737 4.90929 13.7302 4 16.5005 4C21.7472 4 26.0005 8.70101 26.0005 14.5Z" fill="#737373"/>
<path d="M24.167 14.5C24.167 18.6421 20.8091 22 16.667 22C12.5249 22 9.16699 18.6421 9.16699 14.5C9.16699 10.3579 12.5249 7 16.667 7C20.8091 7 24.167 10.3579 24.167 14.5Z" fill="#E5E5E5"/>
<path fill-rule="evenodd" clip-rule="evenodd" d="M6.00977 28.4989C6.17337 24.8449 8.39782 21.6945 11.6136 20.0577C12.9448 21.2649 14.7116 22.0003 16.6501 22.0003C18.5944 22.0003 20.366 21.2604 21.6985 20.0469C24.6023 21.5168 26.7019 24.2193 27.2131 27.4139C24.326 30.2506 20.3674 32.0004 16.0001 32.0004C12.2208 32.0004 8.74747 30.69 6.00977 28.4989Z" fill="#737373"/>
<ellipse cx="14.65" cy="14.75" rx="0.65" ry="0.75" fill="#6E747B"/>
<ellipse cx="18.65" cy="14.75" rx="0.65" ry="0.75" fill="#6E747B"/>
<circle cx="16" cy="16" r="16" fill="#FFC117"/>
<path d="M15.833 25.8333V22.1667C15.833 22.0746 15.9076 22 15.9997 22H17.6935C17.8068 22 17.8895 22.1116 17.8734 22.2237C17.8067 22.6887 17.8706 23.5258 18.4997 24.383C18.7981 24.7896 19.1902 25.1108 19.5905 25.3572C19.7622 25.463 19.658 26 19.4564 26H15.9997C15.9076 26 15.833 25.9254 15.833 25.8333Z" fill="#262626"/>
<path d="M16.333 25.8333V22.1667C16.333 22.0746 16.2584 22 16.1663 22H14.4725C14.3592 22 14.2765 22.1116 14.2926 22.2237C14.3593 22.6887 14.2954 23.5258 13.6663 24.383C13.3679 24.7896 12.9758 25.1108 12.5755 25.3572C12.4038 25.463 12.508 26 12.7096 26H16.1663C16.2584 26 16.333 25.9254 16.333 25.8333Z" fill="#262626"/>
<rect x="4.5" y="8.5" width="23" height="13" rx="1.5" fill="white" stroke="#262626"/>
<path d="M12.0796 13.0948L12.4765 17.7256C12.4898 17.8808 12.6196 18 12.7754 18H19.2246C19.3804 18 19.5102 17.8808 19.5235 17.7256L19.9204 13.0948C19.9453 12.8045 19.5834 12.6527 19.3938 12.8739L18.277 14.1768C18.142 14.3343 17.8917 14.3105 17.7888 14.1304L16.2605 11.4558C16.1453 11.2543 15.8547 11.2543 15.7395 11.4558L14.2112 14.1304C14.1083 14.3105 13.858 14.3343 13.723 14.1768L12.6062 12.8739C12.4166 12.6527 12.0547 12.8045 12.0796 13.0948Z" fill="#262626"/>
</svg>
