<svg width="24" height="24" viewBox="0 0 24 24" fill="none" xmlns="http://www.w3.org/2000/svg">
<path d="M4.4497 13.9082L11.4023 20.4395C11.6418 20.6644 11.7616 20.7769 11.9027 20.8046C11.9663 20.8171 12.0317 20.8171 12.0953 20.8046C12.2365 20.7769 12.3562 20.6644 12.5957 20.4395L19.5483 13.9082C21.5045 12.0706 21.7421 9.0466 20.0968 6.92607L19.7875 6.52734C17.8193 3.99058 13.8687 4.41601 12.4857 7.31365C12.2903 7.72296 11.7077 7.72296 11.5124 7.31365C10.1294 4.41601 6.17874 3.99058 4.21057 6.52735L3.90121 6.92607C2.25597 9.0466 2.49352 12.0706 4.4497 13.9082Z" fill="#FFC117" stroke="#262626" stroke-width="2"/>
</svg>
