<svg width="16" height="16" viewBox="0 0 16 16" fill="none" xmlns="http://www.w3.org/2000/svg">
<circle cx="11.333" cy="6" r="2" fill="#262626"/>
<circle cx="4.66699" cy="6" r="2" fill="#262626"/>
<path fill-rule="evenodd" clip-rule="evenodd" d="M11.7116 11.9993H13.2626C13.657 11.9993 13.9595 11.6594 13.8637 11.2768C13.6182 10.2966 12.9646 8.66602 11.3326 8.66602C10.7419 8.66602 10.2794 8.87966 9.91797 9.19877C10.9231 9.85091 11.4429 10.9928 11.7116 11.9993Z" fill="#262626"/>
<path fill-rule="evenodd" clip-rule="evenodd" d="M6.08074 9.19877C5.71935 8.87966 5.25682 8.66602 4.6661 8.66602C3.03415 8.66602 2.38054 10.2966 2.13505 11.2768C2.03924 11.6594 2.34167 11.9993 2.73608 11.9993H4.28712C4.55585 10.9928 5.07557 9.8509 6.08074 9.19877Z" fill="#262626"/>
<circle cx="7.99967" cy="5.99967" r="2.66667" fill="#FFC117"/>
<path d="M8.00033 9.33301C10.4728 9.33301 11.1113 11.5337 11.2762 12.6704C11.3291 13.0348 11.0352 13.333 10.667 13.333H5.33366C4.96547 13.333 4.67155 13.0348 4.72442 12.6704C4.88933 11.5337 5.52789 9.33301 8.00033 9.33301Z" fill="#FFC117"/>
</svg>
